<mxfile host="app.diagrams.net" modified="2023-07-27T14:00:53.466Z" agent="Mozilla/5.0 (Windows NT 10.0; Win64; x64) AppleWebKit/537.36 (KHTML, like Gecko) Chrome/115.0.0.0 Safari/537.36" version="21.6.5" etag="81pfeomu5ddp3KUESfZD" type="gitlab">
  <diagram name="Page-1" id="7lAIiiJx6JvmHaxcug1v">
    <mxGraphModel>
      <root>
        <mxCell id="0" />
        <mxCell id="1" parent="0" />
      </root>
    </mxGraphModel>
  </diagram>
</mxfile>
